<svg width="100%" height="100%" viewBox="0 0 358 358" fill="none" xmlns="http://www.w3.org/2000/svg">
  <circle cx="179" cy="179" r="179" fill="#245252"/>
  <path d="M178.486 331C261.612 331 329 263.843 329 181C329 170.064 327.826 159.402 325.596 149.131C325.276 149.518 324.949 149.901 324.614 150.279C324.614 150.279 269.125 204.5 242.5 235C215.875 265.5 165.205 330.424 165.205 330.424C169.581 330.805 174.01 331 178.486 331Z" fill="#F48E34"/>
  <path d="M84.4559 298.134C84.4833 297.555 84.5216 296.975 84.571 296.393L87.495 261.992C89.0116 244.15 79.1824 227.272 62.916 219.785L31.2523 205.213C30.7665 204.989 30.2859 204.758 29.8108 204.519C35.7708 242.237 55.8362 275.286 84.4559 298.134Z" fill="#F48E34"/>
  <path d="M41.5861 118.572C65.3521 66.8951 117.713 31 178.486 31C220.07 31 257.715 47.8059 284.956 74.9742C284.14 75.0754 283.324 75.199 282.507 75.3454C282.507 75.3454 220 80.1683 160 92C100 103.832 42.325 118.433 42.325 118.433C42.0779 118.478 41.8317 118.524 41.5861 118.572Z" fill="#F48E34"/>
  <path d="M288.688 109.795C293.142 108.996 297.608 111.142 299.767 115.12C301.872 118.998 301.327 123.78 298.403 127.085C298.403 127.085 241.008 185.5 216.5 213.5C191.992 241.5 138.674 307.591 138.674 307.591C135.888 310.739 131.554 312.028 127.502 310.913C122.383 309.506 118.996 304.647 119.445 299.357L122.369 264.957C125.135 232.421 107.211 201.642 77.5486 187.991L45.885 173.418C41.7347 171.508 39.2257 167.203 39.6096 162.651C40.0223 157.757 43.6711 153.75 48.5051 152.883C48.5051 152.883 118.5 134 171 125.5C223.5 117 288.688 109.795 288.688 109.795Z" fill="#F48E34"/>
</svg>
